# xmcd
#
# Track frame offsets:
#	150
#	13245
#	20464
#	32429
#	42813
#	55877
#	70003
#	81574
#	99253
#	109844
#	122369
#	132270
#
# Disc length: 1923 seconds
#
# Revision: 1
# Processed by: cddbd v1.5.1PL0 Copyright (c) Steve Scherf et al.
# Submitted via: audiograbber 1.83.01
#
DISCID=9307810c
DTITLE=Johnny Cash - The Best Of
DYEAR=1900
DGENRE=
TTITLE0=San Quentin
TTITLE1=Folsom Prison Blues
TTITLE2=Ring Of Fire
TTITLE3=Kate
TTITLE4=Man In Black
TTITLE5=Orange Blossom Special
TTITLE6=A Thing Called Love
TTITLE7=A Boy Named Sue
TTITLE8=Bonanza
TTITLE9=Jackson (with June Carter)
TTITLE10=I Walk The Line
TTITLE11=Give My Love To Rose (with June Carter)
EXTD=
EXTT0=
EXTT1=
EXTT2=
EXTT3=
EXTT4=
EXTT5=
EXTT6=
EXTT7=
EXTT8=
EXTT9=
EXTT10=
EXTT11=
PLAYORDER=
